<svg id="visual" viewBox="0 0 900 600" width="900" height="600" xmlns="http://www.w3.org/2000/svg" xmlns:xlink="http://www.w3.org/1999/xlink" version="1.1"><rect x="0" y="0" width="900" height="600" fill="#001220"></rect><path d="M0 415L21.5 404C43 393 86 371 128.8 361.8C171.7 352.7 214.3 356.3 257.2 363.7C300 371 343 382 385.8 389.2C428.7 396.3 471.3 399.7 514.2 402.5C557 405.3 600 407.7 642.8 402.2C685.7 396.7 728.3 383.3 771.2 388.2C814 393 857 416 878.5 427.5L900 439L900 601L878.5 601C857 601 814 601 771.2 601C728.3 601 685.7 601 642.8 601C600 601 557 601 514.2 601C471.3 601 428.7 601 385.8 601C343 601 300 601 257.2 601C214.3 601 171.7 601 128.8 601C86 601 43 601 21.5 601L0 601Z" fill="#fa7268"></path><path d="M0 450L21.5 450.3C43 450.7 86 451.3 128.8 453.2C171.7 455 214.3 458 257.2 449C300 440 343 419 385.8 416.7C428.7 414.3 471.3 430.7 514.2 432C557 433.3 600 419.7 642.8 411.2C685.7 402.7 728.3 399.3 771.2 402.3C814 405.3 857 414.7 878.5 419.3L900 424L900 601L878.5 601C857 601 814 601 771.2 601C728.3 601 685.7 601 642.8 601C600 601 557 601 514.2 601C471.3 601 428.7 601 385.8 601C343 601 300 601 257.2 601C214.3 601 171.7 601 128.8 601C86 601 43 601 21.5 601L0 601Z" fill="#ef5f67"></path><path d="M0 453L21.5 452.8C43 452.7 86 452.3 128.8 458.7C171.7 465 214.3 478 257.2 480.5C300 483 343 475 385.8 470.8C428.7 466.7 471.3 466.3 514.2 462.8C557 459.3 600 452.7 642.8 456.5C685.7 460.3 728.3 474.7 771.2 483.2C814 491.7 857 494.3 878.5 495.7L900 497L900 601L878.5 601C857 601 814 601 771.2 601C728.3 601 685.7 601 642.8 601C600 601 557 601 514.2 601C471.3 601 428.7 601 385.8 601C343 601 300 601 257.2 601C214.3 601 171.7 601 128.8 601C86 601 43 601 21.5 601L0 601Z" fill="#e34c67"></path><path d="M0 491L21.5 493.7C43 496.3 86 501.7 128.8 508.2C171.7 514.7 214.3 522.3 257.2 522.5C300 522.7 343 515.3 385.8 514.8C428.7 514.3 471.3 520.7 514.2 520.2C557 519.7 600 512.3 642.8 505.7C685.7 499 728.3 493 771.2 489.7C814 486.3 857 485.7 878.5 485.3L900 485L900 601L878.5 601C857 601 814 601 771.2 601C728.3 601 685.7 601 642.8 601C600 601 557 601 514.2 601C471.3 601 428.7 601 385.8 601C343 601 300 601 257.2 601C214.3 601 171.7 601 128.8 601C86 601 43 601 21.5 601L0 601Z" fill="#d53867"></path><path d="M0 564L21.5 559C43 554 86 544 128.8 538.8C171.7 533.7 214.3 533.3 257.2 533C300 532.7 343 532.3 385.8 536.5C428.7 540.7 471.3 549.3 514.2 548.8C557 548.3 600 538.7 642.8 536.2C685.7 533.7 728.3 538.3 771.2 539.3C814 540.3 857 537.7 878.5 536.3L900 535L900 601L878.5 601C857 601 814 601 771.2 601C728.3 601 685.7 601 642.8 601C600 601 557 601 514.2 601C471.3 601 428.7 601 385.8 601C343 601 300 601 257.2 601C214.3 601 171.7 601 128.8 601C86 601 43 601 21.5 601L0 601Z" fill="#c62368"></path></svg>